<?xml version="1.0" standalone="no"?><!DOCTYPE svg PUBLIC "-//W3C//DTD SVG 1.1//EN" "http://www.w3.org/Graphics/SVG/1.1/DTD/svg11.dtd"><svg t="1650508862475" class="icon" viewBox="0 0 1024 1024" version="1.1" xmlns="http://www.w3.org/2000/svg" p-id="1646" width="128" height="128" xmlns:xlink="http://www.w3.org/1999/xlink"><defs><style type="text/css">@font-face { font-family: feedback-iconfont; src: url("//at.alicdn.com/t/font_1031158_u69w8yhxdu.woff2?t=1630033759944") format("woff2"), url("//at.alicdn.com/t/font_1031158_u69w8yhxdu.woff?t=1630033759944") format("woff"), url("//at.alicdn.com/t/font_1031158_u69w8yhxdu.ttf?t=1630033759944") format("truetype"); }
</style></defs><path d="M355.188 981.236c43.076-37.216 63.78-83.76 63.78-83.76l-195.32-309.624s-91.912 42.796-102.276 173.588c-5.228 66 6.412 163.248 43.82 219.796h189.996z" fill="#AAAACC" p-id="1647"></path><path d="M186.88 704.556a225 172 90 1 0 344 0 225 172 90 1 0-344 0Z" fill="#6E6E96" opacity=".2" p-id="1648"></path><path d="M355.188 1011.236H165.192a30 30 0 0 1-25.02-13.452c-30.056-45.428-56.772-136.876-48.704-238.712 11.612-146.56 115.116-196.38 119.516-198.416a29.98 29.98 0 0 1 38.036 11.188l195.32 309.624a29.996 29.996 0 0 1 2.036 28.2c-0.956 2.152-23.98 53.156-71.58 94.272a30.012 30.012 0 0 1-19.608 7.296z m-172.844-60h161.228c19.56-18.844 33.164-39.344 40.772-52.42l-169.644-268.92c-23.248 19.604-57.604 60.54-63.42 133.916-4.56 57.58 4.876 137.048 31.064 187.424z" fill="#6E6E96" p-id="1649"></path><path d="M684.46 981.236c-43.08-37.216-63.784-83.76-63.784-83.76L816 587.84s91.916 42.796 102.272 173.588c5.228 66.008-6.416 163.248-43.82 219.796h-189.992v0.012z" fill="#AAAACC" p-id="1650"></path><path d="M874.452 1011.236h-189.992a29.96 29.96 0 0 1-19.608-7.296c-47.6-41.116-70.624-92.12-71.584-94.272a30.008 30.008 0 0 1 2.044-28.2l195.324-309.624a29.992 29.992 0 0 1 38.04-11.188c4.408 2.048 107.908 51.868 119.52 198.416 8.068 101.86-18.656 193.284-48.708 238.72a30.052 30.052 0 0 1-25.036 13.444z m-178.372-60h161.24c26.184-50.368 35.612-129.836 31.068-187.424-5.82-73.416-40.196-114.34-63.416-133.924l-169.66 268.932c7.596 13.052 21.196 33.564 40.768 52.416z" fill="#6E6E96" p-id="1651"></path><path d="M510.884 704.556a225 172 90 1 0 344 0 225 172 90 1 0-344 0Z" fill="#6E6E96" opacity=".2" p-id="1652"></path><path d="M786.616 587.084c0 237.56-125.812 320.648-281 320.648-155.192 0-281-83.088-281-320.648 0-237.564 125.812-535.724 281-535.724 155.188 0.008 281 298.168 281 535.724z" fill="#FFFFFF" p-id="1653"></path><path d="M514.928 937.744c-95.016 0-171.084-26.78-226.072-79.6-62.54-60.084-94.248-151.268-94.248-271.056 0-122.332 32.988-260.82 88.244-370.436 63.468-125.92 145.888-195.272 232.084-195.272 86.18 0 168.592 69.348 232.072 195.272 55.248 109.628 88.244 248.112 88.244 370.436 0 119.776-31.712 210.968-94.248 271.056-54.996 52.808-131.06 79.6-226.076 79.6z m0-856.376c-137.752 0-260.32 282.8-260.32 505.72 0 102.812 25.508 179.444 75.816 227.772 43.432 41.72 105.508 62.876 184.5 62.876s141.072-21.156 184.5-62.876c50.304-48.328 75.812-124.96 75.812-227.772 0.012-222.92-122.552-505.72-260.308-505.72z" fill="#6E6E96" p-id="1654"></path><path d="M511.224 416.768m-152.344 0a152.344 152.344 0 1 0 304.688 0 152.344 152.344 0 1 0-304.688 0Z" fill="#59C9C3" p-id="1655"></path><path d="M514.928 884.236c-90.244 0-162.512-25.24-214.824-75-59.544-56.664-89.736-142.584-89.736-255.376 0-114.916 31.28-245 83.676-347.972C354.38 87.324 432.82 22.028 514.92 22.028c82.096 0 160.548 65.296 220.88 183.86 52.396 102.972 83.676 233.056 83.676 347.972 0 112.792-30.196 198.712-89.744 255.376-52.288 49.76-124.56 75-214.804 75z m0-802.212c-56.84-8.884-118.544 55.064-167.404 151.072-48.312 94.94-77.152 214.852-77.152 320.76 0 179.412 82.28 258.372 244.548 258.372 0 0 184.5 2.632 178.64-243.116-4.772-200.6-101.7-475.064-178.632-487.088z" fill="#6E6E96" opacity=".15" p-id="1656"></path><path d="M380.92 466.716a130.304 116.716 0 1 0 260.608 0 130.304 116.716 0 1 0-260.608 0Z" fill="#65E6DF" p-id="1657"></path><path d="M470 470.568a48 29.432 0 1 0 96 0 48 29.432 0 1 0-96 0Z" fill="#FFFFFF" p-id="1658"></path><path d="M511.228 599.116c-100.548 0-182.348-81.8-182.348-182.348 0-100.548 81.8-182.348 182.348-182.348 100.544 0 182.34 81.8 182.34 182.348 0.004 100.548-81.804 182.348-182.34 182.348z m0-304.696c-67.464 0-122.348 54.884-122.348 122.348s54.884 122.348 122.348 122.348c67.46 0 122.34-54.884 122.34-122.348 0.004-67.464-54.88-122.348-122.34-122.348z" fill="#6E6E96" p-id="1659"></path></svg>